<svg xmlns="http://www.w3.org/2000/svg" viewBox="0 0 960 640" role="img" aria-labelledby="title desc">
  <title id="title">Palace server systems map</title>
  <desc id="desc">A compact visual map of the server systems: economy, shops, land, maid, pets, and levels.</desc>
  <defs>
    <linearGradient id="sky" x1="0" x2="1" y1="0" y2="1">
      <stop offset="0" stop-color="#dcefdc"/>
      <stop offset="1" stop-color="#f6edcf"/>
    </linearGradient>
    <filter id="shadow" x="-20%" y="-20%" width="140%" height="140%">
      <feDropShadow dx="0" dy="18" stdDeviation="18" flood-color="#233526" flood-opacity=".18"/>
    </filter>
  </defs>
  <rect width="960" height="640" rx="34" fill="url(#sky)"/>
  <g filter="url(#shadow)">
    <path d="M92 426h776v118H92z" fill="#6b8f60"/>
    <path d="M92 390h776v56H92z" fill="#8db071"/>
    <path d="M146 426h92v118h-92zM268 426h92v118h-92zM390 426h92v118h-92zM512 426h92v118h-92zM634 426h92v118h-92zM756 426h92v118h-92z" fill="#566f50" opacity=".42"/>
    <path d="M226 324h190v102H226z" fill="#e1d4b8"/>
    <path d="M206 324h230l-115-86z" fill="#9c6b4d"/>
    <path d="M268 360h52v66h-52z" fill="#6f4a38"/>
    <path d="M340 358h42v38h-42zM244 358h42v38h-42z" fill="#8fc0d1"/>
    <path d="M582 274h128v152H582z" fill="#d6d2c2"/>
    <path d="M558 274h176l-88-78z" fill="#6f7d8a"/>
    <path d="M622 332h48v94h-48z" fill="#424b55"/>
    <path d="M692 358h38v36h-38z" fill="#8fc0d1"/>
    <path d="M510 390h48v36h-48z" fill="#c9a348"/>
    <circle cx="534" cy="376" r="28" fill="#f0c75f"/>
    <text x="534" y="384" text-anchor="middle" font-family="Arial, sans-serif" font-size="24" font-weight="700" fill="#594016">G</text>
    <circle cx="774" cy="376" r="30" fill="#f7f1dc"/>
    <path d="M758 388c24-6 30-25 22-39 22 11 18 49-22 58z" fill="#d9c6a0"/>
    <circle cx="764" cy="366" r="5" fill="#30342d"/>
    <path d="M118 318h60v108h-60z" fill="#b9895d"/>
    <path d="M104 318h88l-44-62z" fill="#72503c"/>
    <rect x="128" y="352" width="38" height="74" fill="#473326"/>
    <path d="M456 304h72v122h-72z" fill="#e8e0c7"/>
    <path d="M442 304h100l-50-58z" fill="#bd7b62"/>
    <rect x="478" y="350" width="30" height="76" fill="#5b4335"/>
    <g font-family="Arial, sans-serif" font-weight="700" font-size="28">
      <text x="321" y="222" text-anchor="middle" fill="#523b2a">상점</text>
      <text x="646" y="178" text-anchor="middle" fill="#38424d">은행</text>
      <text x="148" y="238" text-anchor="middle" fill="#523b2a">부동산</text>
      <text x="492" y="230" text-anchor="middle" fill="#6b4936">메이드</text>
      <text x="774" y="330" text-anchor="middle" fill="#4c4735">펫</text>
    </g>
  </g>
</svg>
